<svg xmlns="http://www.w3.org/2000/svg" viewBox="0 0 400 400" width="400" height="400">
  <defs>
    <linearGradient id="bgV2" x1="0%" y1="0%" x2="100%" y2="100%">
      <stop offset="0%" stop-color="#020912"/>
      <stop offset="100%" stop-color="#050e1a"/>
    </linearGradient>
    <linearGradient id="wireGrad" x1="0%" y1="0%" x2="100%" y2="100%">
      <stop offset="0%" stop-color="#00f0ff"/>
      <stop offset="100%" stop-color="#0055cc"/>
    </linearGradient>
    <linearGradient id="scanLine" x1="0%" y1="0%" x2="100%" y2="0%">
      <stop offset="0%" stop-color="#00f0ff" stop-opacity="0"/>
      <stop offset="50%" stop-color="#00f0ff"/>
      <stop offset="100%" stop-color="#00f0ff" stop-opacity="0"/>
    </linearGradient>
    <filter id="gV2">
      <feGaussianBlur stdDeviation="4" result="b"/>
      <feMerge><feMergeNode in="b"/><feMergeNode in="SourceGraphic"/></feMerge>
    </filter>
    <filter id="bigGV2">
      <feGaussianBlur stdDeviation="14" result="b"/>
      <feMerge><feMergeNode in="b"/><feMergeNode in="SourceGraphic"/></feMerge>
    </filter>
  </defs>

  <!-- Background -->
  <rect width="400" height="400" fill="url(#bgV2)"/>

  <!-- Hex grid -->
  <g opacity="0.07" stroke="#00aaff" stroke-width="0.8" fill="none">
    <polygon points="200,40 222,52 222,76 200,88 178,76 178,52"/>
    <polygon points="244,40 266,52 266,76 244,88 222,76 222,52"/>
    <polygon points="156,40 178,52 178,76 156,88 134,76 134,52"/>
    <polygon points="288,40 310,52 310,76 288,88 266,76 266,52"/>
    <polygon points="112,40 134,52 134,76 112,88 90,76 90,52"/>
    <polygon points="222,88 244,100 244,124 222,136 200,124 200,100"/>
    <polygon points="178,88 200,100 200,124 178,136 156,124 156,100"/>
    <polygon points="266,88 288,100 288,124 266,136 244,124 244,100"/>
    <polygon points="134,88 156,100 156,124 134,136 112,124 112,100"/>
    <polygon points="310,88 332,100 332,124 310,136 288,124 288,100"/>
    <polygon points="90,88 112,100 112,124 90,136 68,124 68,100"/>
    <polygon points="200,136 222,148 222,172 200,184 178,172 178,148"/>
    <polygon points="244,136 266,148 266,172 244,184 222,172 222,148"/>
    <polygon points="156,136 178,148 178,172 156,184 134,172 134,148"/>
    <polygon points="288,136 310,148 310,172 288,184 266,172 266,148"/>
    <polygon points="112,136 134,148 134,172 112,184 90,172 90,148"/>
    <polygon points="222,184 244,196 244,220 222,232 200,220 200,196"/>
    <polygon points="178,184 200,196 200,220 178,232 156,220 156,196"/>
    <polygon points="266,184 288,196 288,220 266,232 244,220 244,196"/>
    <polygon points="134,184 156,196 156,220 134,232 112,220 112,196"/>
    <polygon points="310,184 332,196 332,220 310,232 288,220 288,196"/>
    <polygon points="90,184 112,196 112,220 90,232 68,220 68,196"/>
    <polygon points="200,232 222,244 222,268 200,280 178,268 178,244"/>
    <polygon points="244,232 266,244 266,268 244,280 222,268 222,244"/>
    <polygon points="156,232 178,244 178,268 156,280 134,268 134,244"/>
    <polygon points="288,232 310,244 310,268 288,280 266,268 266,244"/>
    <polygon points="112,232 134,244 134,268 112,280 90,268 90,244"/>
    <polygon points="222,280 244,292 244,316 222,328 200,316 200,292"/>
    <polygon points="178,280 200,292 200,316 178,328 156,316 156,292"/>
    <polygon points="266,280 288,292 288,316 266,328 244,316 244,292"/>
    <polygon points="134,280 156,292 156,316 134,328 112,316 112,292"/>
  </g>

  <!-- Outer hex frame -->
  <polygon points="200,28 358,118 358,282 200,372 42,282 42,118"
           fill="none" stroke="#003d66" stroke-width="1.5" opacity="0.5"/>
  <polygon points="200,38 348,123 348,277 200,362 52,277 52,123"
           fill="none" stroke="#005588" stroke-width="0.6" opacity="0.3"/>

  <!-- Center glow -->
  <ellipse cx="200" cy="210" rx="95" ry="85" fill="#002255" opacity="0.1" filter="url(#bigGV2)"/>

  <!-- === WIREFRAME ORGANIC FIST === -->
  <!-- Inner grid fill -->
  <path d="
    M 152,196
    C 150,186 150,175 155,169
    C 158,163 165,162 170,165
    C 171,158 176,151 184,150
    C 192,149 199,154 201,161
    C 203,154 210,148 219,148
    C 228,148 235,154 236,161
    C 238,155 245,151 253,153
    C 262,155 267,163 265,172
    C 268,169 274,172 276,181
    C 279,192 276,207 269,218
    C 274,223 276,236 271,246
    C 265,256 253,258 246,252
    L 244,282
    C 243,293 236,300 224,300
    L 176,300
    C 164,300 157,293 156,282
    Z
  " fill="#020e1c" opacity="0.95"/>

  <!-- Internal blueprint grid on palm -->
  <g stroke="#00335a" stroke-width="0.7" opacity="0.5">
    <line x1="175" y1="196" x2="175" y2="298"/>
    <line x1="200" y1="200" x2="200" y2="298"/>
    <line x1="225" y1="196" x2="225" y2="298"/>
    <line x1="155" y1="220" x2="270" y2="220"/>
    <line x1="155" y1="244" x2="270" y2="244"/>
    <line x1="155" y1="268" x2="244" y2="268"/>
  </g>

  <!-- Wireframe outline of fist -->
  <path d="
    M 152,196
    C 150,186 150,175 155,169
    C 158,163 165,162 170,165
    C 171,158 176,151 184,150
    C 192,149 199,154 201,161
    C 203,154 210,148 219,148
    C 228,148 235,154 236,161
    C 238,155 245,151 253,153
    C 262,155 267,163 265,172
    C 268,169 274,172 276,181
    C 279,192 276,207 269,218
    C 274,223 276,236 271,246
    C 265,256 253,258 246,252
    L 244,282
    C 243,293 236,300 224,300
    L 176,300
    C 164,300 157,293 156,282
    Z
  " fill="none" stroke="url(#wireGrad)" stroke-width="2" filter="url(#gV2)"/>

  <!-- Scan line across palm -->
  <line x1="150" y1="234" x2="278" y2="234" stroke="url(#scanLine)" stroke-width="1.5" opacity="0.55"/>

  <!-- Knuckle glow dots -->
  <g filter="url(#gV2)">
    <circle cx="163" cy="167" r="4" fill="#00ffff" opacity="0.9"/>
    <circle cx="190" cy="158" r="4" fill="#00ffff"/>
    <circle cx="219" cy="152" r="4.5" fill="#00ffff"/>
    <circle cx="247" cy="157" r="4" fill="#00ffff" opacity="0.9"/>
  </g>
  <!-- Knuckle arc -->
  <path d="M 163,167 C 180,155 202,148 219,152 C 233,155 245,157 247,157"
        fill="none" stroke="#00ddff" stroke-width="1" opacity="0.45" stroke-dasharray="3,3"/>

  <!-- Corner brackets -->
  <g stroke="#00aaff" stroke-width="1.5" fill="none" opacity="0.55">
    <polyline points="50,50 50,70 70,70"/>
    <polyline points="350,50 350,70 330,70"/>
    <polyline points="50,350 50,330 70,330"/>
    <polyline points="350,350 350,330 330,330"/>
  </g>

  <!-- Readouts -->
  <text x="56" y="48" font-family="monospace" font-size="7" fill="#00aacc" opacity="0.5">ZH.001</text>
  <text x="312" y="48" font-family="monospace" font-size="7" fill="#00aacc" opacity="0.5">AGENT</text>
  <text x="56" y="364" font-family="monospace" font-size="7" fill="#00aacc" opacity="0.5">0×00</text>
  <text x="308" y="364" font-family="monospace" font-size="7" fill="#00aacc" opacity="0.5">ACTIVE</text>

  <!-- Coordinate ticks -->
  <g opacity="0.2" stroke="#00aaff" stroke-width="0.5">
    <line x1="200" y1="34" x2="200" y2="44"/>
    <line x1="200" y1="356" x2="200" y2="366"/>
    <line x1="46" y1="200" x2="56" y2="200"/>
    <line x1="344" y1="200" x2="354" y2="200"/>
  </g>

  <!-- Wordmark -->
  <g filter="url(#gV2)">
    <text x="200" y="332" font-family="'Courier New', Courier, monospace"
          font-size="20" font-weight="bold" letter-spacing="10"
          text-anchor="middle" fill="#00ddff">ZEROHAND</text>
  </g>
  <text x="200" y="348" font-family="'Courier New', Courier, monospace"
        font-size="8" letter-spacing="4"
        text-anchor="middle" fill="#006688" opacity="0.75">HUMANLESS · AGENTIC · AUTONOMOUS</text>

  <text x="200" y="62" font-family="'Courier New', Courier, monospace"
        font-size="8" letter-spacing="3"
        text-anchor="middle" fill="#004466" opacity="0.55">AI ORCHESTRATION HARNESS</text>
</svg>
