<svg xmlns="http://www.w3.org/2000/svg" viewBox="136 132 126 152" width="32" height="32" fill="none" stroke="#818cf8" stroke-width="4" stroke-linecap="round" stroke-linejoin="round">
  <path d="M 138,180 C 136,170 136,159 141,153 C 144,147 151,146 156,149 C 157,142 162,135 170,134 C 178,133 185,138 187,145 C 189,138 196,132 205,132 C 214,132 221,138 222,145 C 224,139 231,135 239,137 C 248,139 253,147 251,156 C 254,153 260,156 262,165 C 265,176 262,191 255,202 C 260,207 262,220 257,230 C 251,240 239,242 232,236 L 230,266 C 229,277 222,284 210,284 L 162,284 C 150,284 143,277 142,266 Z"/>
</svg>
